<svg width="17" height="14" viewBox="0 0 17 14" fill="none" xmlns="http://www.w3.org/2000/svg">
<path d="M15 0H1.25C0.918479 0 0.600537 0.131696 0.366116 0.366116C0.131696 0.600537 0 0.918479 0 1.25V12.5C0 12.8315 0.131696 13.1495 0.366116 13.3839C0.600537 13.6183 0.918479 13.75 1.25 13.75H15C15.3315 13.75 15.6495 13.6183 15.8839 13.3839C16.1183 13.1495 16.25 12.8315 16.25 12.5V1.25C16.25 0.918479 16.1183 0.600537 15.8839 0.366116C15.6495 0.131696 15.3315 0 15 0ZM3.125 4.0625C3.125 4.22826 3.05915 4.38723 2.94194 4.50444C2.82473 4.62165 2.66576 4.6875 2.5 4.6875C2.33424 4.6875 2.17527 4.62165 2.05806 4.50444C1.94085 4.38723 1.875 4.22826 1.875 4.0625V3.125C1.875 2.95924 1.94085 2.80027 2.05806 2.68306C2.17527 2.56585 2.33424 2.5 2.5 2.5H8.125C8.29076 2.5 8.44973 2.56585 8.56694 2.68306C8.68415 2.80027 8.75 2.95924 8.75 3.125V4.0625C8.75 4.22826 8.68415 4.38723 8.56694 4.50444C8.44973 4.62165 8.29076 4.6875 8.125 4.6875C7.95924 4.6875 7.80027 4.62165 7.68306 4.50444C7.56585 4.38723 7.5 4.22826 7.5 4.0625V3.75H5.9375V7.5H6.25C6.41576 7.5 6.57473 7.56585 6.69194 7.68306C6.80915 7.80027 6.875 7.95924 6.875 8.125C6.875 8.29076 6.80915 8.44973 6.69194 8.56694C6.57473 8.68415 6.41576 8.75 6.25 8.75H4.375C4.20924 8.75 4.05027 8.68415 3.93306 8.56694C3.81585 8.44973 3.75 8.29076 3.75 8.125C3.75 7.95924 3.81585 7.80027 3.93306 7.68306C4.05027 7.56585 4.20924 7.5 4.375 7.5H4.6875V3.75H3.125V4.0625ZM13.75 11.25H4.375C4.20924 11.25 4.05027 11.1842 3.93306 11.0669C3.81585 10.9497 3.75 10.7908 3.75 10.625C3.75 10.4592 3.81585 10.3003 3.93306 10.1831C4.05027 10.0658 4.20924 10 4.375 10H13.75C13.9158 10 14.0747 10.0658 14.1919 10.1831C14.3092 10.3003 14.375 10.4592 14.375 10.625C14.375 10.7908 14.3092 10.9497 14.1919 11.0669C14.0747 11.1842 13.9158 11.25 13.75 11.25ZM13.75 8.75H8.75C8.58424 8.75 8.42527 8.68415 8.30806 8.56694C8.19085 8.44973 8.125 8.29076 8.125 8.125C8.125 7.95924 8.19085 7.80027 8.30806 7.68306C8.42527 7.56585 8.58424 7.5 8.75 7.5H13.75C13.9158 7.5 14.0747 7.56585 14.1919 7.68306C14.3092 7.80027 14.375 7.95924 14.375 8.125C14.375 8.29076 14.3092 8.44973 14.1919 8.56694C14.0747 8.68415 13.9158 8.75 13.75 8.75ZM13.75 6.25H10C9.83424 6.25 9.67527 6.18415 9.55806 6.06694C9.44085 5.94973 9.375 5.79076 9.375 5.625C9.375 5.45924 9.44085 5.30027 9.55806 5.18306C9.67527 5.06585 9.83424 5 10 5H13.75C13.9158 5 14.0747 5.06585 14.1919 5.18306C14.3092 5.30027 14.375 5.45924 14.375 5.625C14.375 5.79076 14.3092 5.94973 14.1919 6.06694C14.0747 6.18415 13.9158 6.25 13.75 6.25Z" fill="white"/>
</svg>
